<svg xmlns="http://www.w3.org/2000/svg" width="31" height="32" viewBox="0 0 31 32"><defs><mask id="mt89b" width="2" height="2" x="-1" y="-1"><path fill="#fff" d="M0 0h30v30H0z"/><path d="M27.78 29.996H2.22c-1.224 0-2.216-.963-2.216-2.149V2.151C.004.965.996.002 2.22.002h25.56c1.224 0 2.216.963 2.216 2.15v25.695c0 1.186-.992 2.149-2.217 2.149zM4.563 25.11h4.53V11.567h-4.53zM6.86 5.038c-1.55 0-2.563 1.011-2.563 2.34 0 1.298.983 2.34 2.503 2.34h.03c1.58 0 2.563-1.042 2.563-2.34-.03-1.329-.984-2.34-2.533-2.34zm18.57 12.306c0-4.16-2.235-6.097-5.215-6.097-2.405 0-3.481 1.314-4.083 2.237v-1.917h-4.53c.059 1.27 0 13.543 0 13.543h4.53v-7.564c0-.405.029-.808.149-1.098.328-.809 1.073-1.646 2.324-1.646 1.64 0 2.295 1.242 2.295 3.061v7.247h4.53zm-9.328-3.813l.03-.047v.047z"/></mask><filter id="mt89a" width="51.5" height="52.6" x="-10" y="-10" filterUnits="userSpaceOnUse"><feOffset dx="1.5" dy="2.6" in="SourceGraphic" result="FeOffset1063Out"/><feGaussianBlur in="FeOffset1063Out" result="FeGaussianBlur1064Out" stdDeviation="0 0"/></filter></defs><g><g><g filter="url(#mt89a)"><path fill="none" d="M27.78 29.996H2.22c-1.224 0-2.216-.963-2.216-2.149V2.151C.004.965.996.002 2.22.002h25.56c1.224 0 2.216.963 2.216 2.15v25.695c0 1.186-.992 2.149-2.217 2.149zM4.563 25.11h4.53V11.567h-4.53zM6.86 5.038c-1.55 0-2.563 1.011-2.563 2.34 0 1.298.983 2.34 2.503 2.34h.03c1.58 0 2.563-1.042 2.563-2.34-.03-1.329-.984-2.34-2.533-2.34zm18.57 12.306c0-4.16-2.235-6.097-5.215-6.097-2.405 0-3.481 1.314-4.083 2.237v-1.917h-4.53c.059 1.27 0 13.543 0 13.543h4.53v-7.564c0-.405.029-.808.149-1.098.328-.809 1.073-1.646 2.324-1.646 1.64 0 2.295 1.242 2.295 3.061v7.247h4.53zm-9.328-3.813l.03-.047v.047z" mask="url(&quot;#mt89b&quot;)"/><path fill-opacity=".25" d="M27.78 29.996H2.22c-1.224 0-2.216-.963-2.216-2.149V2.151C.004.965.996.002 2.22.002h25.56c1.224 0 2.216.963 2.216 2.15v25.695c0 1.186-.992 2.149-2.217 2.149zM4.563 25.11h4.53V11.567h-4.53zM6.86 5.038c-1.55 0-2.563 1.011-2.563 2.34 0 1.298.983 2.34 2.503 2.34h.03c1.58 0 2.563-1.042 2.563-2.34-.03-1.329-.984-2.34-2.533-2.34zm18.57 12.306c0-4.16-2.235-6.097-5.215-6.097-2.405 0-3.481 1.314-4.083 2.237v-1.917h-4.53c.059 1.27 0 13.543 0 13.543h4.53v-7.564c0-.405.029-.808.149-1.098.328-.809 1.073-1.646 2.324-1.646 1.64 0 2.295 1.242 2.295 3.061v7.247h4.53zm-9.328-3.813l.03-.047v.047z"/></g><path fill="#564547" d="M27.78 29.996H2.22c-1.224 0-2.216-.963-2.216-2.149V2.151C.004.965.996.002 2.22.002h25.56c1.224 0 2.216.963 2.216 2.15v25.695c0 1.186-.992 2.149-2.217 2.149zM4.563 25.11h4.53V11.567h-4.53zM6.86 5.038c-1.55 0-2.563 1.011-2.563 2.34 0 1.298.983 2.34 2.503 2.34h.03c1.58 0 2.563-1.042 2.563-2.34-.03-1.329-.984-2.34-2.533-2.34zm18.57 12.306c0-4.16-2.235-6.097-5.215-6.097-2.405 0-3.481 1.314-4.083 2.237v-1.917h-4.53c.059 1.27 0 13.543 0 13.543h4.53v-7.564c0-.405.029-.808.149-1.098.328-.809 1.073-1.646 2.324-1.646 1.64 0 2.295 1.242 2.295 3.061v7.247h4.53zm-9.328-3.813l.03-.047v.047z"/></g></g></svg>