<svg xmlns="http://www.w3.org/2000/svg" width="31" height="26" viewBox="0 0 31 26"><defs><mask id="mo0rb" width="2" height="2" x="-1" y="-1"><path fill="#fff" d="M0 0h30v24H0z"/><path d="M30.004 2.845a12.4 12.4 0 0 1-3.536.954 6.087 6.087 0 0 0 2.707-3.35 12.434 12.434 0 0 1-3.91 1.47A6.197 6.197 0 0 0 20.773.008c-3.4 0-6.156 2.71-6.156 6.054 0 .475.054.936.159 1.38a17.577 17.577 0 0 1-12.69-6.326 5.949 5.949 0 0 0-.833 3.043c0 2.101 1.086 3.954 2.738 5.04a6.219 6.219 0 0 1-2.788-.757v.076c0 2.933 2.122 5.38 4.938 5.936a6.26 6.26 0 0 1-2.78.104c.783 2.406 3.057 4.157 5.75 4.205a12.483 12.483 0 0 1-7.646 2.593c-.496 0-.986-.03-1.468-.085a17.638 17.638 0 0 0 9.437 2.72c11.325 0 17.517-9.226 17.517-17.227 0-.263-.006-.524-.018-.783a12.377 12.377 0 0 0 3.072-3.136z"/></mask><filter id="mo0ra" width="51.5" height="46.6" x="-10" y="-10" filterUnits="userSpaceOnUse"><feOffset dx="1.5" dy="2.6" in="SourceGraphic" result="FeOffset1023Out"/><feGaussianBlur in="FeOffset1023Out" result="FeGaussianBlur1024Out" stdDeviation="0 0"/></filter></defs><g><g><g filter="url(#mo0ra)"><path fill="none" d="M30.004 2.845a12.4 12.4 0 0 1-3.536.954 6.087 6.087 0 0 0 2.707-3.35 12.434 12.434 0 0 1-3.91 1.47A6.197 6.197 0 0 0 20.773.008c-3.4 0-6.156 2.71-6.156 6.054 0 .475.054.936.159 1.38a17.577 17.577 0 0 1-12.69-6.326 5.949 5.949 0 0 0-.833 3.043c0 2.101 1.086 3.954 2.738 5.04a6.219 6.219 0 0 1-2.788-.757v.076c0 2.933 2.122 5.38 4.938 5.936a6.26 6.26 0 0 1-2.78.104c.783 2.406 3.057 4.157 5.75 4.205a12.483 12.483 0 0 1-7.646 2.593c-.496 0-.986-.03-1.468-.085a17.638 17.638 0 0 0 9.437 2.72c11.325 0 17.517-9.226 17.517-17.227 0-.263-.006-.524-.018-.783a12.377 12.377 0 0 0 3.072-3.136z" mask="url(&quot;#mo0rb&quot;)"/><path fill-opacity=".25" d="M30.004 2.845a12.4 12.4 0 0 1-3.536.954 6.087 6.087 0 0 0 2.707-3.35 12.434 12.434 0 0 1-3.91 1.47A6.197 6.197 0 0 0 20.773.008c-3.4 0-6.156 2.71-6.156 6.054 0 .475.054.936.159 1.38a17.577 17.577 0 0 1-12.69-6.326 5.949 5.949 0 0 0-.833 3.043c0 2.101 1.086 3.954 2.738 5.04a6.219 6.219 0 0 1-2.788-.757v.076c0 2.933 2.122 5.38 4.938 5.936a6.26 6.26 0 0 1-2.78.104c.783 2.406 3.057 4.157 5.75 4.205a12.483 12.483 0 0 1-7.646 2.593c-.496 0-.986-.03-1.468-.085a17.638 17.638 0 0 0 9.437 2.72c11.325 0 17.517-9.226 17.517-17.227 0-.263-.006-.524-.018-.783a12.377 12.377 0 0 0 3.072-3.136z"/></g><path fill="#564547" d="M30.004 2.845a12.4 12.4 0 0 1-3.536.954 6.087 6.087 0 0 0 2.707-3.35 12.434 12.434 0 0 1-3.91 1.47A6.197 6.197 0 0 0 20.773.008c-3.4 0-6.156 2.71-6.156 6.054 0 .475.054.936.159 1.38a17.577 17.577 0 0 1-12.69-6.326 5.949 5.949 0 0 0-.833 3.043c0 2.101 1.086 3.954 2.738 5.04a6.219 6.219 0 0 1-2.788-.757v.076c0 2.933 2.122 5.38 4.938 5.936a6.26 6.26 0 0 1-2.78.104c.783 2.406 3.057 4.157 5.75 4.205a12.483 12.483 0 0 1-7.646 2.593c-.496 0-.986-.03-1.468-.085a17.638 17.638 0 0 0 9.437 2.72c11.325 0 17.517-9.226 17.517-17.227 0-.263-.006-.524-.018-.783a12.377 12.377 0 0 0 3.072-3.136z"/></g></g></svg>