<svg xmlns="http://www.w3.org/2000/svg" width="16" height="34" viewBox="0 0 16 34"><defs><mask id="h158b" width="2" height="2" x="-1" y="-1"><path fill="#fff" d="M0 0h15v32H0z"/><path d="M15.003 10.361h-5.11v-3.32c0-1.248.834-1.539 1.421-1.539h3.607V.02L9.954 0c-5.514 0-6.77 4.09-6.77 6.707v3.654H-.003v5.65h3.189v15.987h6.708V16.011h4.525z"/></mask><filter id="h158a" width="36.5" height="54.6" x="-10" y="-10" filterUnits="userSpaceOnUse"><feOffset dx="1.5" dy="2.6" in="SourceGraphic" result="FeOffset1043Out"/><feGaussianBlur in="FeOffset1043Out" result="FeGaussianBlur1044Out" stdDeviation="0 0"/></filter></defs><g><g><g filter="url(#h158a)"><path fill="none" d="M15.003 10.361h-5.11v-3.32c0-1.248.834-1.539 1.421-1.539h3.607V.02L9.954 0c-5.514 0-6.77 4.09-6.77 6.707v3.654H-.003v5.65h3.189v15.987h6.708V16.011h4.525z" mask="url(&quot;#h158b&quot;)"/><path fill-opacity=".25" d="M15.003 10.361h-5.11v-3.32c0-1.248.834-1.539 1.421-1.539h3.607V.02L9.954 0c-5.514 0-6.77 4.09-6.77 6.707v3.654H-.003v5.65h3.189v15.987h6.708V16.011h4.525z"/></g><path fill="#564547" d="M15.003 10.361h-5.11v-3.32c0-1.248.834-1.539 1.421-1.539h3.607V.02L9.954 0c-5.514 0-6.77 4.09-6.77 6.707v3.654H-.003v5.65h3.189v15.987h6.708V16.011h4.525z"/></g></g></svg>